<svg width="24" height="24" viewBox="0 0 32 32" xmlns="http://www.w3.org/2000/svg">
  <path d="M16 0C7.164 0 0 7.163 0 16c0 8.837 7.164 16 16 16 8.837 0 16-7.163 16-16C32 7.163 24.837 0 16 0zm11.002 9.198c.2.617.36 1.25.474 1.9.112.652.17 1.32.17 2.004 0 2.666-.588 5.308-1.76 7.92-1.174 2.612-2.765 4.83-4.775 6.66-.036.034-.072.064-.108.096l-3.37-9.766c.698-1.1 1.05-2.215 1.05-3.348 0-.546-.072-1.134-.214-1.764-.142-.632-.324-1.29-.546-1.98l-.71-2.226c.246-.04.49-.094.73-.16.24-.066.45-.1.634-.1.456 0 .684-.17.684-.51 0-.25-.178-.4-.532-.4-.004 0-.12.01-.35.028-.232.02-.514.03-.85.03-.31 0-.674-.012-1.092-.034-.418-.024-.83-.036-1.236-.036-.144 0-.33.006-.558.016-.228.01-.414.016-.558.016-.16 0-.364-.004-.614-.012-.25-.008-.514-.014-.792-.014-.47 0-.71.154-.71.46 0 .11.044.21.132.302.086.092.204.14.35.14.148 0 .34.006.574.016.234.01.458.02.672.03l1.3 3.56-1.82 5.28-3.02-8.84c.246-.04.49-.094.73-.16.24-.066.45-.1.634-.1.456 0 .684-.17.684-.51 0-.25-.178-.4-.532-.4-.004 0-.12.01-.35.028-.232.02-.514.03-.85.03-.31 0-.674-.012-1.092-.034-.418-.024-.83-.036-1.236-.036-.144 0-.33.006-.558.016-.228.01-.414.016-.558.016-.16 0-.364-.004-.614-.012-.25-.008-.514-.014-.792-.014-.47 0-.71.154-.71.46 0 .11.044.21.132.302.086.092.204.14.35.14.148 0 .34.006.574.016.234.01.458.02.672.03l1.22 3.34-1.72 5.03-2.86-8.37c.246-.04.49-.094.73-.16.24-.066.45-.1.634-.1.456 0 .684-.17.684-.51 0-.25-.178-.4-.532-.4-.004 0-.12.01-.35.028-.232.02-.514.03-.85.03-.31 0-.674-.012-1.092-.034-.418-.024-.83-.036-1.236-.036-.144 0-.33.006-.558.016-.228.01-.414.016-.558.016-.33 0-.708-.01-1.13-.028-.422-.02-.736-.028-.946-.028-.32 0-.5.142-.5.426 0 .11.04.21.124.302.082.092.196.14.34.14.268 0 .556.036.864.11l3.1 8.504-1.74 5.05c-1.04-1.4-1.85-2.95-2.43-4.64-.58-1.69-.87-3.44-.87-5.25 0-2.78.68-5.4 2.05-7.86C7.56 5.69 9.44 4.1 11.7 3c.62-.3 1.27-.55 1.95-.74 1.88-.54 3.8-.63 5.75-.26 1.96.37 3.68 1.13 5.14 2.3 1.46 1.17 2.6 2.65 3.42 4.42zM16 30.2c-1.2 0-2.36-.17-3.48-.5l3.7-10.72 3.8 11.02c-.04.01-.08.02-.12.03-1.18.31-2.4.47-3.66.47zm4.8-2.05c.74-.44 1.44-.95 2.1-1.52 1.6-1.4 2.88-3.08 3.84-5.04.96-1.96 1.44-4.02 1.44-6.18 0-1.3-.18-2.56-.54-3.8-.36-1.24-.9-2.4-1.62-3.5.2 1.2.06 2.51-.4 3.92-.46 1.4-1.08 2.84-1.86 4.32l-2.96 8.9z"/>
</svg>
